<svg xmlns="http://www.w3.org/2000/svg" version="1.1" xmlns:xlink="http://www.w3.org/1999/xlink" xmlns:svgjs="http://svgjs.dev/svgjs" width="72" height="72" viewBox="0 0 128 128"><g transform="matrix(0.8046875,0,0,0.8046875,12.760752631578946,12.760672229289725)"><svg viewBox="0 0 95 95" data-background-color="#0d0d0d" preserveAspectRatio="xMidYMid meet" width="128" height="128" xmlns="http://www.w3.org/2000/svg" xmlns:xlink="http://www.w3.org/1999/xlink"><g id="tight-bounds" transform="matrix(1,0,0,1,-0.24049999999999727,-0.24042584254877397)"><svg viewBox="0 0 95.481 95.48085168509755" height="95.48085168509755" width="95.481"><g><svg viewBox="0 0 95.481 95.48085168509755" height="95.48085168509755" width="95.481"><g><svg viewBox="0 0 95.481 95.48085168509755" height="95.48085168509755" width="95.481"><g><svg viewBox="0 0 95.481 95.48085168509755" height="95.48085168509755" width="95.481"><g><svg viewBox="0 0 95.481 95.48085168509755" height="95.48085168509755" width="95.481"><g><svg viewBox="0 0 95.481 95.48085168509755" height="95.48085168509755" width="95.481"><g><svg xmlns="http://www.w3.org/2000/svg" viewBox="16.875441026999134 16.562788674079904 479.1199555643494 479.1192113259201" x="0" y="0" height="95.48085168509755" width="95.481" class="icon-icon-0" data-fill-palette-color="accent" id="icon-0"><path d="M42.343 405.343c19.3 19.3 36.542 25.468 49.987 25.468 11.719 0 20.55-4.69 25.327-9.468L153.32 385.68c1.712 12.36 8.633 27.273 25.023 43.663 19.3 19.3 36.542 25.468 49.987 25.468 11.719 0 20.55-4.69 25.327-9.468L304 395l91.188 91.188c6.07 6.07 15.339 9.494 25.353 9.494q2 0 4.028-0.183c15.053-1.369 30.506-9.885 45.932-25.311s23.942-30.88 25.311-45.933c1.047-11.52-2.433-22.5-9.311-29.38l-91.188-91.188 34.344-34.344c6.877-6.877 10.358-17.86 9.31-29.381-1.368-15.052-9.884-30.506-25.31-45.932-16.391-16.391-31.3-23.312-43.663-25.024l51.663-51.663c10.258-10.257 20.114-39.2-16-75.313s-65.056-26.258-75.314-16L224 132.373 141.657 50.03c-10.258-10.259-39.2-20.115-75.314 16s-26.258 65.056-16 75.313l82.344 82.344L26.343 330.03C16.085 340.287 6.229 369.229 42.343 405.343Zm183.381 33.376c-11.066-1.006-23.538-8.16-36.067-20.689s-19.684-25-20.69-36.068c-0.946-10.408 3.741-15.67 4.69-16.619 0.863-0.863 5.29-4.815 13.909-4.815 0.861 0 1.765 0.04 2.71 0.126 11.066 1.006 23.538 8.16 36.067 20.689s19.684 25 20.69 36.068c0.946 10.408-3.741 15.67-4.69 16.619S236.131 439.667 225.724 438.719Zm36.956-25.026c-1.712-12.36-8.633-27.273-25.023-43.663s-31.3-23.312-43.663-25.024L224 315l68.687 68.687Zm217.2 9.114c-1 11.066-8.16 23.538-20.689 36.068s-25 19.683-36.067 20.689c-10.412 0.948-15.671-3.74-16.62-4.689L81.992 150.365c12.36-1.712 27.274-8.631 43.665-25.022s23.311-31.3 25.023-43.663L475.188 406.188C476.137 407.137 480.824 412.4 479.877 422.807Zm-113.6-238.153c11.066 1.006 23.538 8.16 36.067 20.689s19.684 25 20.69 36.068c0.946 10.408-3.741 15.67-4.69 16.619L384 292.373l-68.687-68.686 34.344-34.344C350.606 188.4 355.865 183.707 366.276 184.654ZM341.657 37.343c0.949-0.949 6.207-5.638 16.619-4.689 11.066 1.006 23.538 8.16 36.067 20.689s19.684 25 20.69 36.068c0.946 10.408-3.741 15.67-4.69 16.619L304 212.373l-68.687-68.686ZM56.967 113.411c1.006-11.066 8.16-23.538 20.69-36.068s25-19.683 36.067-20.689c0.946-0.086 1.849-0.126 2.71-0.126 8.618 0 13.046 3.952 13.909 4.815 0.949 0.949 5.636 6.211 4.69 16.619-1.006 11.066-8.16 23.538-20.69 36.068s-25 19.683-36.067 20.689c-10.412 0.947-15.67-3.74-16.619-4.689S56.021 123.819 56.967 113.411Zm155.72 190.276L126.68 389.693c-1.712-12.36-8.633-27.273-25.023-43.663s-31.3-23.312-43.663-25.024L144 235ZM51.566 336.528c0.861 0 1.765 0.04 2.71 0.126 11.066 1.006 23.538 8.16 36.067 20.689s19.684 25 20.69 36.068c0.946 10.408-3.741 15.67-4.69 16.619s-6.212 5.633-16.619 4.689c-11.066-1.006-23.538-8.16-36.067-20.689s-19.684-25-20.69-36.068c-0.946-10.408 3.741-15.67 4.69-16.619C38.52 340.48 42.947 336.528 51.566 336.528Z" fill="#1e6f9f" data-fill-palette-color="accent"></path><path d="M133.657 154.03a8 8 0 1 0-11.314 11.313l32 32a8 8 0 1 0 11.314-11.313Z" fill="#1e6f9f" data-fill-palette-color="accent"></path><path d="M250.343 293.343a8 8 0 1 0 11.314-11.313l-72-72a8 8 0 0 0-11.314 11.313Z" fill="#1e6f9f" data-fill-palette-color="accent"></path></svg></g></svg></g></svg></g></svg></g></svg></g></svg></g><defs></defs></svg><rect width="95.481" height="95.48085168509755" fill="none" stroke="none" visibility="hidden"></rect></g></svg></g></svg>